baby-shark.ufo
<glyph name="exclam" format="2">
	<unicode hex="0021"/>
	<advance width="300"/>
	<outline>
		<contour>
			<point x="150" y="-10" type="curve" smooth="yes"/>
			<point x="200" y="-10"/>
			<point x="250" y="25"/>
			<point x="250" y="90" type="curve" smooth="yes"/>
			<point x="250" y="145"/>
			<point x="200" y="180"/>
			<point x="150" y="180" type="curve" smooth="yes"/>
			<point x="100" y="180"/>
			<point x="50" y="145"/>
			<point x="50" y="90" type="curve" smooth="yes"/>
			<point x="50" y="25"/>
			<point x="100" y="-10"/>
		</contour>
		<contour>
			<point x="90" y="220" type="curve"/>
			<point x="210" y="220" type="line"/>
			<point x="230" y="310"/>
			<point x="285" y="500"/>
			<point x="285" y="570" type="curve" smooth="yes"/>
			<point x="285" y="650"/>
			<point x="225" y="710"/>
			<point x="150" y="710" type="curve" smooth="yes"/>
			<point x="75" y="710"/>
			<point x="15" y="650"/>
			<point x="15" y="570" type="curve" smooth="yes"/>
			<point x="15" y="500"/>
			<point x="70" y="310"/>
		</contour>
	</outline>
</glyph>
<glyph name="ampersand" format="2">
	<unicode hex="0026"/>
	<advance width="605"/>
	<outline>
		<contour>
			<point x="239" y="-2" type="curve" smooth="yes"/>
			<point x="590" y="0" type="line"/>
			<point x="590" y="350" type="line"/>
			<point x="224" y="350" type="line"/>
			<point x="224" y="375" type="line"/>
			<point x="490" y="375" type="line"/>
			<point x="490" y="470" type="line"/>
			<point x="220" y="470" type="line"/>
			<point x="220" y="500" type="line"/>
			<point x="390" y="500" type="line"/>
			<point x="390" y="595"/>
			<point x="348" y="710"/>
			<point x="220" y="710" type="curve" smooth="yes"/>
			<point x="92" y="710"/>
			<point x="20" y="620"/>
			<point x="20" y="510" type="curve" smooth="yes"/>
			<point x="20" y="434"/>
			<point x="63" y="394"/>
			<point x="95" y="375" type="curve"/>
			<point x="43" y="345"/>
			<point x="-15" y="291"/>
			<point x="-15" y="175" type="curve" smooth="yes"/>
			<point x="-15" y="34"/>
			<point x="92" y="1"/>
		</contour>
	</outline>
</glyph>
<glyph name="parenleft" format="2">
	<unicode hex="0028"/>
	<advance width="290"/>
	<outline>
		<contour>
			<point x="275" y="-20" type="line"/>
			<point x="135" y="-20"/>
			<point x="15" y="148"/>
			<point x="15" y="350" type="curve" smooth="yes"/>
			<point x="15" y="537"/>
			<point x="135" y="710"/>
			<point x="275" y="710" type="curve"/>
		</contour>
	</outline>
</glyph>
<glyph name="parenright" format="2">
	<unicode hex="0029"/>
	<advance width="290"/>
	<outline>
		<contour>
			<point x="15" y="-10" type="line"/>
			<point x="155" y="-10"/>
			<point x="275" y="120"/>
			<point x="275" y="350" type="curve" smooth="yes"/>
			<point x="275" y="582"/>
			<point x="165" y="710"/>
			<point x="15" y="710" type="curve"/>
		</contour>
	</outline>
</glyph>
<glyph name="comma" format="2">
	<unicode hex="002C"/>
	<advance width="230"/>
	<outline>
		<contour>
			<point x="105" y="10" type="curve"/>
			<point x="95" y="-40" type="line"/>
			<point x="151" y="-40" type="line" smooth="yes"/>
			<point x="179" y="2"/>
			<point x="215" y="49"/>
			<point x="215" y="90" type="curve" smooth="yes"/>
			<point x="215" y="145"/>
			<point x="165" y="180"/>
			<point x="115" y="180" type="curve" smooth="yes"/>
			<point x="65" y="180"/>
			<point x="15" y="145"/>
			<point x="15" y="90" type="curve" smooth="yes"/>
			<point x="15" y="32"/>
			<point x="55" y="10"/>
		</contour>
		<contour identifier="75ee2f4e-12c0-4a24-8eff-0e4a93fb0a69">
			<point x="102.09256" y="292"/>
			<point x="85.09584" y="296.12045"/>
			<point x="70.485405" y="304.62906" type="curve"/>
			<point x="55.874966" y="313.1377"/>
			<point x="43.854298" y="325.9659"/>
			<point x="36.13089" y="341.0062" type="curve"/>
			<point x="28.40748" y="356.0465"/>
			<point x="25" y="373.09256"/>
			<point x="25" y="390" type="curve" smooth="yes" identifier="63985a3e-8d98-46c8-8822-f876ace03bc2"/>
			<point x="25.000006" y="406.58414"/>
			<point x="28.54394" y="423.26233"/>
			<point x="36.12266" y="438.0135" type="curve"/>
			<point x="43.70138" y="452.76462"/>
			<point x="55.356506" y="465.43558"/>
			<point x="69.58249" y="473.95935" type="curve"/>
			<point x="83.80848" y="482.48312"/>
			<point x="100.41796" y="486.7368"/>
			<point x="117" y="487" type="curve" smooth="yes" identifier="8b44edd5-bd7a-4184-b228-f637cf213fa3"/>
			<point x="133.87358" y="487.31247"/>
			<point x="150.91257" y="482.74213"/>
			<point x="165.54842" y="474.09085" type="curve"/>
			<point x="180.18428" y="465.4396"/>
			<point x="192.37662" y="452.761"/>
			<point x="200.58067" y="438.0128" type="curve"/>
			<point x="208.78471" y="423.26462"/>
			<point x="213" y="406.50128"/>
			<point x="213" y="390" type="curve" smooth="yes" identifier="955d34ad-fba5-4f2b-98b9-2637d507c42d"/>
			<point x="213" y="373.76306"/>
			<point x="208.9743" y="357.11737"/>
			<point x="201.00829" y="342.33466" type="curve"/>
			<point x="193.04228" y="327.55194"/>
			<point x="181.1318" y="314.69034"/>
			<point x="166.75775" y="305.78632" type="curve"/>
			<point x="152.38368" y="296.8823"/>
			<point x="135.58498" y="292"/>
			<point x="119" y="292" type="curve" smooth="yes" identifier="60eb00b7-9327-420e-86a7-93229835d8cd"/>
		</contour>
	</outline>
</glyph>
<glyph name="hyphen" format="2">
	<unicode hex="002D"/>
	<advance width="280"/>
	<outline>
		<contour>
			<point x="15" y="375" type="line"/>
			<point x="265" y="375" type="line"/>
			<point x="265" y="475" type="line"/>
			<point x="15" y="475" type="line"/>
		</contour>
	</outline>
</glyph>
<glyph name="zero" format="2">
	<unicode hex="0030"/>
	<advance width="680"/>
	<outline>
		<contour>
			<point x="325" y="-10" type="curve" smooth="yes"/>
			<point x="325" y="710" type="line"/>
			<point x="207" y="710"/>
			<point x="15" y="600"/>
			<point x="15" y="350" type="curve" smooth="yes"/>
			<point x="15" y="110"/>
			<point x="210" y="-10"/>
		</contour>
		<contour>
			<point x="355" y="709" type="curve"/>
			<point x="355" y="-10" type="line" smooth="yes"/>
			<point x="465" y="-10"/>
			<point x="665" y="110"/>
			<point x="665" y="350" type="curve" smooth="yes"/>
			<point x="665" y="600"/>
			<point x="490" y="709"/>
		</contour>
	</outline>
</glyph>
<glyph name="one" format="2">
	<unicode hex="0031"/>
	<advance width="360"/>
	<outline>
		<contour>
			<point x="115" y="0" type="line"/>
			<point x="345" y="0" type="line"/>
			<point x="345" y="700" type="line"/>
			<point x="15" y="700" type="line"/>
			<point x="15" y="500" type="line"/>
			<point x="115" y="500" type="line"/>
		</contour>
	</outline>
</glyph>
<glyph name="two" format="2">
	<unicode hex="0032"/>
	<advance width="480"/>
	<outline>
		<contour>
			<point x="15" y="0" type="line"/>
			<point x="465" y="0" type="line"/>
			<point x="465" y="350" type="line"/>
			<point x="325" y="350" type="line"/>
			<point x="370" y="430"/>
			<point x="410" y="490"/>
			<point x="410" y="560" type="curve" smooth="yes"/>
			<point x="410" y="629"/>
			<point x="374" y="710"/>
			<point x="235" y="710" type="curve" smooth="yes"/>
			<point x="97" y="710"/>
			<point x="25" y="610"/>
			<point x="25" y="500" type="curve" smooth="yes"/>
			<point x="265" y="501" type="line"/>
		</contour>
	</outline>
</glyph>
<glyph name="three" format="2">
	<unicode hex="0033"/>
	<advance width="570"/>
	<outline>
		<contour>
			<point x="325" y="-10" type="curve" smooth="yes"/>
			<point x="494" y="-10"/>
			<point x="555" y="79"/>
			<point x="555" y="211" type="curve" smooth="yes"/>
			<point x="555" y="289"/>
			<point x="494" y="363"/>
			<point x="414" y="375" type="curve"/>
			<point x="468" y="393"/>
			<point x="514" y="450"/>
			<point x="514" y="530" type="curve" smooth="yes"/>
			<point x="514" y="624"/>
			<point x="462" y="710"/>
			<point x="315" y="710" type="curve" smooth="yes"/>
			<point x="177" y="710"/>
			<point x="124" y="606"/>
			<point x="124" y="500" type="curve" smooth="yes"/>
			<point x="307" y="500" type="line"/>
			<point x="307" y="475" type="line"/>
			<point x="124" y="475" type="line"/>
			<point x="124" y="375" type="line"/>
			<point x="324" y="375" type="line"/>
			<point x="324" y="350" type="line"/>
			<point x="15" y="350" type="line"/>
			<point x="15" y="106"/>
			<point x="130" y="-10"/>
		</contour>
	</outline>
</glyph>
<glyph name="four" format="2">
	<unicode hex="0034"/>
	<advance width="410"/>
	<outline>
		<contour>
			<point x="165" y="0" type="line"/>
			<point x="395" y="0" type="line"/>
			<point x="395" y="475" type="line"/>
			<point x="245" y="475" type="line"/>
			<point x="245" y="500" type="line"/>
			<point x="395" y="500" type="line"/>
			<point x="395" y="700" type="line"/>
			<point x="175" y="700" type="line"/>
			<point x="15" y="375" type="line"/>
			<point x="165" y="375" type="line"/>
		</contour>
	</outline>
</glyph>
<glyph name="five" format="2">
	<unicode hex="0035"/>
	<advance width="560"/>
	<outline>
		<contour>
			<point x="274" y="-15" type="curve" smooth="yes"/>
			<point x="417" y="-15"/>
			<point x="545" y="55"/>
			<point x="545" y="230" type="curve" smooth="yes"/>
			<point x="545" y="361"/>
			<point x="475" y="475"/>
			<point x="295" y="475" type="curve" smooth="yes"/>
			<point x="295" y="500" type="line"/>
			<point x="475" y="500" type="line"/>
			<point x="475" y="700" type="line"/>
			<point x="115" y="700" type="line"/>
			<point x="115" y="380" type="line"/>
			<point x="295" y="380" type="line"/>
			<point x="295" y="350" type="line"/>
			<point x="15" y="350" type="line" smooth="yes"/>
			<point x="15" y="80"/>
			<point x="145" y="-15"/>
		</contour>
	</outline>
</glyph>
<glyph name="six" format="2">
	<unicode hex="0036"/>
	<advance width="560"/>
	<outline>
		<contour>
			<point x="285" y="-10" type="curve" smooth="yes"/>
			<point x="418" y="-10"/>
			<point x="545" y="52"/>
			<point x="545" y="219" type="curve" smooth="yes"/>
			<point x="545" y="369"/>
			<point x="488" y="480"/>
			<point x="300" y="480" type="curve" smooth="yes"/>
			<point x="174" y="480" type="line"/>
			<point x="174" y="500" type="line"/>
			<point x="405" y="500" type="line"/>
			<point x="405" y="700" type="line"/>
			<point x="227" y="700"/>
			<point x="15" y="600"/>
			<point x="15" y="278" type="curve" smooth="yes"/>
			<point x="15" y="138"/>
			<point x="137" y="-10"/>
		</contour>
	</outline>
</glyph>
<glyph name="seven" format="2">
	<unicode hex="0037"/>
	<advance width="385"/>
	<outline>
		<contour>
			<point x="80" y="0" type="line"/>
			<point x="180" y="0" type="line"/>
			<point x="380" y="700" type="line"/>
			<point x="-10" y="700" type="line"/>
			<point x="-10" y="500" type="line"/>
			<point x="230" y="500" type="line"/>
		</contour>
	</outline>
</glyph>
<glyph name="eight" format="2">
	<unicode hex="0038"/>
	<advance width="530"/>
	<outline>
		<contour>
			<point x="277" y="-11" type="curve" smooth="yes"/>
			<point x="423" y="-11"/>
			<point x="516" y="80"/>
			<point x="515" y="210" type="curve" smooth="yes"/>
			<point x="514" y="371"/>
			<point x="403" y="475"/>
			<point x="280" y="475" type="curve" smooth="yes"/>
			<point x="280" y="499" type="line"/>
			<point x="349" y="499"/>
			<point x="386" y="556"/>
			<point x="386" y="605" type="curve" smooth="yes"/>
			<point x="386" y="664"/>
			<point x="345" y="710"/>
			<point x="265" y="710" type="curve" smooth="yes"/>
			<point x="200" y="710"/>
			<point x="150" y="676"/>
			<point x="150" y="607" type="curve" smooth="yes"/>
			<point x="150" y="558"/>
			<point x="187" y="500"/>
			<point x="250" y="500" type="curve"/>
			<point x="250" y="474" type="line" smooth="yes"/>
			<point x="132" y="470"/>
			<point x="21" y="403"/>
			<point x="15" y="239" type="curve" smooth="yes"/>
			<point x="8" y="53"/>
			<point x="128" y="-11"/>
		</contour>
	</outline>
</glyph>
<glyph name="nine" format="2">
	<unicode hex="0039"/>
	<advance width="345"/>
	<outline>
		<contour>
			<point x="67" y="0" type="line"/>
			<point x="158" y="0" type="line"/>
			<point x="266" y="321" type="line" smooth="yes"/>
			<point x="302" y="417"/>
			<point x="330" y="486"/>
			<point x="329" y="543" type="curve" smooth="yes"/>
			<point x="327" y="642"/>
			<point x="269" y="710"/>
			<point x="173" y="710" type="curve" smooth="yes"/>
			<point x="62" y="710"/>
			<point x="0" y="647"/>
			<point x="0" y="547" type="curve" smooth="yes"/>
			<point x="0" y="446"/>
			<point x="88" y="375"/>
			<point x="199" y="375" type="curve" smooth="yes"/>
		</contour>
	</outline>
</glyph>
<glyph name="semicolon" format="2">
	<unicode hex="003B"/>
	<advance width="234"/>
	<outline>
		<contour>
			<point x="109" y="10" type="curve"/>
			<point x="99" y="-40" type="line"/>
			<point x="155" y="-40" type="line" smooth="yes"/>
			<point x="183" y="2"/>
			<point x="219" y="49"/>
			<point x="219" y="90" type="curve" smooth="yes"/>
			<point x="219" y="145"/>
			<point x="169" y="180"/>
			<point x="119" y="180" type="curve" smooth="yes"/>
			<point x="69" y="180"/>
			<point x="19" y="145"/>
			<point x="19" y="90" type="curve" smooth="yes"/>
			<point x="19" y="32"/>
			<point x="59" y="10"/>
		</contour>
		<contour>
			<point x="119" y="230" type="curve" smooth="yes"/>
			<point x="169" y="230"/>
			<point x="219" y="270"/>
			<point x="219" y="330" type="curve" smooth="yes"/>
			<point x="219" y="390"/>
			<point x="169" y="420"/>
			<point x="119" y="420" type="curve" smooth="yes"/>
			<point x="69" y="420"/>
			<point x="15" y="390"/>
			<point x="15" y="330" type="curve" smooth="yes"/>
			<point x="15" y="270"/>
			<point x="70" y="230"/>
		</contour>
	</outline>
</glyph>
<glyph name="equal" format="2">
	<unicode hex="003D"/>
	<advance width="280"/>
	<outline>
		<contour>
			<point x="15" y="265" type="line"/>
			<point x="265" y="265" type="line"/>
			<point x="265" y="405" type="line"/>
			<point x="15" y="405" type="line"/>
		</contour>
		<contour>
			<point x="15" y="105" type="line"/>
			<point x="265" y="105" type="line"/>
			<point x="265" y="245" type="line"/>
			<point x="15" y="245" type="line"/>
		</contour>
	</outline>
</glyph>
<glyph name="question" format="2">
	<unicode hex="003F"/>
	<advance width="400"/>
	<outline>
		<contour>
			<point x="200" y="-10" type="curve" smooth="yes"/>
			<point x="250" y="-10"/>
			<point x="300" y="25"/>
			<point x="300" y="90" type="curve" smooth="yes"/>
			<point x="300" y="145"/>
			<point x="250" y="180"/>
			<point x="200" y="180" type="curve" smooth="yes"/>
			<point x="150" y="180"/>
			<point x="100" y="145"/>
			<point x="100" y="90" type="curve" smooth="yes"/>
			<point x="100" y="25"/>
			<point x="150" y="-10"/>
		</contour>
		<contour>
			<point x="140" y="220" type="line"/>
			<point x="260" y="220" type="line"/>
			<point x="344" y="381"/>
			<point x="385" y="480"/>
			<point x="385" y="540" type="curve" smooth="yes"/>
			<point x="385" y="640"/>
			<point x="340" y="710"/>
			<point x="220" y="710" type="curve" smooth="yes"/>
			<point x="115" y="710"/>
			<point x="15" y="646"/>
			<point x="15" y="500" type="curve" smooth="yes"/>
			<point x="200" y="500" type="line"/>
		</contour>
	</outline>
</glyph>
<glyph name="A" format="2">
	<unicode hex="0041"/>
	<advance width="670"/>
	<outline>
		<contour>
			<point x="15" y="0" type="line"/>
			<point x="335" y="700" type="line"/>
			<point x="655" y="0" type="line"/>
			<point x="350" y="0" type="line"/>
			<point x="350" y="350" type="line"/>
			<point x="320" y="350" type="line"/>
			<point x="320" y="0" type="line"/>
		</contour>
	</outline>
</glyph>
<glyph name="C" format="2">
	<unicode hex="0043"/>
	<advance width="690"/>
	<outline>
		<contour>
			<point x="345" y="350" type="line"/>
			<point x="675" y="500" type="line" smooth="yes"/>
			<point x="637" y="606"/>
			<point x="535" y="710"/>
			<point x="345" y="710" type="curve" smooth="yes"/>
			<point x="155" y="710"/>
			<point x="15" y="540"/>
			<point x="15" y="350" type="curve" smooth="yes"/>
			<point x="15" y="160"/>
			<point x="154" y="-10"/>
			<point x="345" y="-10" type="curve" smooth="yes"/>
			<point x="525" y="-10"/>
			<point x="655" y="110"/>
			<point x="675" y="200" type="curve" smooth="yes"/>
		</contour>
	</outline>
</glyph>
<glyph name="D" format="2">
	<unicode hex="0044"/>
	<advance width="550"/>
	<outline>
		<contour>
			<point x="19" y="700" type="line"/>
			<point x="225" y="700" type="line" smooth="yes"/>
			<point x="415" y="700"/>
			<point x="535" y="582"/>
			<point x="535" y="342" type="curve" smooth="yes"/>
			<point x="535" y="126"/>
			<point x="415" y="0"/>
			<point x="225" y="0" type="curve" smooth="yes"/>
			<point x="15" y="0" type="line"/>
			<point x="15" y="350" type="line"/>
			<point x="225" y="350" type="line"/>
			<point x="225" y="375" type="line"/>
			<point x="15" y="375" type="line"/>
		</contour>
	</outline>
</glyph>
<glyph name="E" format="2">
	<unicode hex="0045"/>
	<advance width="660"/>
	<outline>
		<contour>
			<point x="70" y="700" type="line"/>
			<point x="410" y="700" type="line"/>
			<point x="420" y="690" type="line"/>
			<point x="420" y="510" type="line"/>
			<point x="410" y="500" type="line"/>
			<point x="290" y="500" type="line"/>
			<point x="280" y="490" type="line"/>
			<point x="280" y="485" type="line"/>
			<point x="290" y="475" type="line"/>
			<point x="510" y="475" type="line"/>
			<point x="520" y="465" type="line"/>
			<point x="520" y="385" type="line"/>
			<point x="510" y="375" type="line"/>
			<point x="295" y="375" type="line"/>
			<point x="285" y="365" type="line"/>
			<point x="285" y="360" type="line"/>
			<point x="295" y="350" type="line"/>
			<point x="610" y="350" type="line"/>
			<point x="620" y="340" type="line"/>
			<point x="620" y="10" type="line"/>
			<point x="610" y="0" type="line"/>
			<point x="70" y="0" type="line"/>
			<point x="60" y="10" type="line"/>
			<point x="60" y="690" type="line"/>
		</contour>
	</outline>
</glyph>
<glyph name="F" format="2">
	<unicode hex="0046"/>
	<advance width="500"/>
	<outline>
		<contour>
			<point x="60" y="10" type="line"/>
			<point x="60" y="690" type="line"/>
			<point x="70" y="700" type="line"/>
			<point x="480" y="700" type="line"/>
			<point x="490" y="690" type="line"/>
			<point x="490" y="510" type="line"/>
			<point x="480" y="500" type="line"/>
			<point x="300" y="500" type="line"/>
			<point x="290" y="490" type="line"/>
			<point x="290" y="485" type="line"/>
			<point x="300" y="475" type="line"/>
			<point x="380" y="475" type="line"/>
			<point x="390" y="465" type="line"/>
			<point x="390" y="385" type="line"/>
			<point x="380" y="375" type="line"/>
			<point x="300" y="375" type="line"/>
			<point x="290" y="365" type="line"/>
			<point x="290" y="10" type="line"/>
			<point x="280" y="0" type="line"/>
			<point x="70" y="0" type="line"/>
		</contour>
	</outline>
</glyph>
<glyph name="G" format="2">
	<unicode hex="0047"/>
	<advance width="740"/>
	<outline>
		<contour>
			<point x="371" y="362" type="line"/>
			<point x="674" y="500" type="line"/>
			<point x="674" y="510" type="line"/>
			<point x="620" y="633"/>
			<point x="510" y="710"/>
			<point x="370" y="710" type="curve" smooth="yes"/>
			<point x="143" y="710"/>
			<point x="30" y="540"/>
			<point x="30" y="349" type="curve" smooth="yes"/>
			<point x="30" y="157"/>
			<point x="158" y="-10"/>
			<point x="369" y="-10" type="curve" smooth="yes"/>
			<point x="450" y="-10"/>
			<point x="510" y="10"/>
			<point x="580" y="70" type="curve"/>
			<point x="590" y="70" type="line"/>
			<point x="680" y="0" type="line"/>
			<point x="690" y="0" type="line"/>
			<point x="690" y="340" type="line"/>
			<point x="680" y="350" type="line"/>
			<point x="371" y="352" type="line"/>
		</contour>
	</outline>
</glyph>
<glyph name="H" format="2">
	<unicode hex="0048"/>
	<advance width="590"/>
	<outline>
		<contour>
			<point x="50" y="690" type="line"/>
			<point x="60" y="700" type="line"/>
			<point x="270" y="700" type="line"/>
			<point x="280" y="690" type="line"/>
			<point x="280" y="510" type="line"/>
			<point x="290" y="500" type="line"/>
			<point x="300" y="500" type="line"/>
			<point x="310" y="510" type="line"/>
			<point x="310" y="690" type="line"/>
			<point x="320" y="700" type="line"/>
			<point x="530" y="700" type="line"/>
			<point x="540" y="690" type="line"/>
			<point x="540" y="10" type="line"/>
			<point x="530" y="0" type="line"/>
			<point x="320" y="0" type="line"/>
			<point x="310" y="10" type="line"/>
			<point x="310" y="340" type="line"/>
			<point x="300" y="350" type="line"/>
			<point x="290" y="350" type="line"/>
			<point x="280" y="340" type="line"/>
			<point x="280" y="10" type="line"/>
			<point x="270" y="0" type="line"/>
			<point x="60" y="0" type="line"/>
			<point x="50" y="10" type="line"/>
		</contour>
	</outline>
</glyph>
<glyph name="I" format="2">
	<unicode hex="0049"/>
	<advance width="330"/>
	<outline>
		<contour>
			<point x="280" y="690" type="line"/>
			<point x="280" y="10" type="line"/>
			<point x="270" y="0" type="line"/>
			<point x="60" y="0" type="line"/>
			<point x="50" y="10" type="line"/>
			<point x="50" y="690" type="line"/>
			<point x="60" y="700" type="line"/>
			<point x="270" y="700" type="line"/>
		</contour>
	</outline>
</glyph>
<glyph name="J" format="2">
	<unicode hex="004A"/>
	<advance width="520"/>
	<outline>
		<contour>
			<point x="275" y="700" type="line"/>
			<point x="505" y="700" type="line"/>
			<point x="505" y="190" type="line" smooth="yes"/>
			<point x="505" y="51"/>
			<point x="431" y="-9"/>
			<point x="265" y="-10" type="curve" smooth="yes"/>
			<point x="126" y="-11"/>
			<point x="17" y="51"/>
			<point x="15" y="180" type="curve" smooth="yes"/>
			<point x="15" y="350" type="line"/>
			<point x="245" y="350" type="line"/>
			<point x="245" y="180" type="line"/>
			<point x="275" y="180" type="line"/>
		</contour>
	</outline>
</glyph>
<glyph name="K" format="2">
	<unicode hex="004B"/>
	<advance width="600"/>
	<outline>
		<contour>
			<point x="12" y="700" type="line"/>
			<point x="230" y="700" type="line"/>
			<point x="230" y="564" type="line"/>
			<point x="260" y="564" type="line"/>
			<point x="260" y="700" type="line"/>
			<point x="580" y="700" type="line"/>
			<point x="397" y="387" type="line"/>
			<point x="590" y="0" type="line"/>
			<point x="260" y="0" type="line"/>
			<point x="260" y="160" type="line"/>
			<point x="230" y="160" type="line"/>
			<point x="230" y="0" type="line"/>
			<point x="10" y="0" type="line"/>
		</contour>
	</outline>
</glyph>
<glyph name="L" format="2">
	<unicode hex="004C"/>
	<advance width="490"/>
	<outline>
		<contour>
			<point x="10" y="700" type="line"/>
			<point x="10" y="0" type="line"/>
			<point x="480" y="0" type="line"/>
			<point x="480" y="300" type="line"/>
			<point x="230" y="300" type="line"/>
			<point x="230" y="700" type="line"/>
		</contour>
	</outline>
</glyph>
<glyph name="N" format="2">
	<unicode hex="004E"/>
	<advance width="570"/>
	<outline>
		<contour>
			<point x="15" y="0" type="line"/>
			<point x="15" y="700" type="line"/>
			<point x="325" y="500" type="line"/>
			<point x="325" y="700" type="line"/>
			<point x="555" y="700" type="line"/>
			<point x="555" y="0" type="line"/>
			<point x="275" y="0" type="line"/>
			<point x="275" y="350" type="line"/>
			<point x="245" y="350" type="line"/>
			<point x="245" y="0" type="line"/>
		</contour>
	</outline>
</glyph>
<glyph name="P" format="2">
	<unicode hex="0050"/>
	<advance width="460"/>
	<outline>
		<contour>
			<point x="15" y="0" type="line"/>
			<point x="15" y="470" type="line"/>
			<point x="245" y="470" type="line"/>
			<point x="245" y="500" type="line"/>
			<point x="15" y="500" type="line"/>
			<point x="15" y="700" type="line"/>
			<point x="245" y="700" type="line" smooth="yes"/>
			<point x="375" y="700"/>
			<point x="445" y="620"/>
			<point x="445" y="520" type="curve" smooth="yes"/>
			<point x="445" y="410"/>
			<point x="375" y="350"/>
			<point x="245" y="350" type="curve"/>
			<point x="245" y="0" type="line"/>
		</contour>
	</outline>
</glyph>
<glyph name="S" format="2">
	<unicode hex="0053"/>
	<advance width="510"/>
	<outline>
		<contour>
			<point x="451" y="567" type="line" smooth="yes"/>
			<point x="425" y="654"/>
			<point x="354" y="710"/>
			<point x="239" y="710" type="curve" smooth="yes"/>
			<point x="122" y="710"/>
			<point x="25" y="607"/>
			<point x="25" y="506" type="curve" smooth="yes"/>
			<point x="25" y="420"/>
			<point x="58" y="356"/>
			<point x="108" y="313" type="curve" smooth="yes"/>
			<point x="15" y="232" type="line" smooth="yes"/>
			<point x="15" y="115"/>
			<point x="117" y="-10"/>
			<point x="253" y="-10" type="curve" smooth="yes"/>
			<point x="403" y="-10"/>
			<point x="495" y="116"/>
			<point x="495" y="226" type="curve" smooth="yes"/>
			<point x="495" y="352"/>
			<point x="448" y="420"/>
			<point x="356" y="487" type="curve" smooth="yes"/>
		</contour>
	</outline>
</glyph>
<glyph name="T" format="2">
	<unicode hex="0054"/>
	<advance width="460"/>
	<outline>
		<contour>
			<point x="15" y="700" type="line"/>
			<point x="445" y="699" type="line"/>
			<point x="445" y="500" type="line"/>
			<point x="345" y="500" type="line"/>
			<point x="345" y="0" type="line"/>
			<point x="115" y="0" type="line"/>
			<point x="115" y="500" type="line"/>
			<point x="15" y="500" type="line"/>
		</contour>
	</outline>
</glyph>
<glyph name="U" format="2">
	<unicode hex="0055"/>
	<advance width="500"/>
	<outline>
		<contour>
			<point x="10" y="700" type="line"/>
			<point x="235" y="700" type="line"/>
			<point x="235" y="437" type="line"/>
			<point x="265" y="437" type="line"/>
			<point x="265" y="700" type="line"/>
			<point x="490" y="700" type="line"/>
			<point x="490" y="250" type="line" smooth="yes"/>
			<point x="490" y="80"/>
			<point x="400" y="-11"/>
			<point x="250" y="-10" type="curve" smooth="yes"/>
			<point x="100" y="-9"/>
			<point x="10" y="80"/>
			<point x="10" y="250" type="curve" smooth="yes"/>
		</contour>
	</outline>
</glyph>
<glyph name="V" format="2">
	<unicode hex="0056"/>
	<advance width="610"/>
	<outline>
		<contour>
			<point x="15" y="700" type="line"/>
			<point x="295" y="700" type="line"/>
			<point x="295" y="500" type="line"/>
			<point x="325" y="500" type="line"/>
			<point x="325" y="700" type="line"/>
			<point x="595" y="700" type="line"/>
			<point x="305" y="-10" type="line"/>
		</contour>
	</outline>
</glyph>
<glyph name="W" format="2">
	<unicode hex="0057"/>
	<advance width="850"/>
	<outline>
		<contour>
			<point x="15" y="700" type="line"/>
			<point x="275" y="-10" type="line"/>
			<point x="425" y="350" type="line"/>
			<point x="575" y="-10" type="line"/>
			<point x="835" y="700" type="line"/>
			<point x="570" y="700" type="line"/>
			<point x="570" y="500" type="line"/>
			<point x="540" y="500" type="line"/>
			<point x="540" y="700" type="line"/>
			<point x="310" y="700" type="line"/>
			<point x="310" y="500" type="line"/>
			<point x="280" y="500" type="line"/>
			<point x="280" y="700" type="line"/>
		</contour>
	</outline>
</glyph>
<glyph name="Z" format="2">
	<unicode hex="005A"/>
	<advance width="500"/>
	<outline>
		<contour>
			<point x="10" y="700" type="line"/>
			<point x="500" y="700" type="line"/>
			<point x="312" y="262" type="line"/>
			<point x="490" y="262" type="line"/>
			<point x="490" y="0" type="line"/>
			<point x="0" y="0" type="line"/>
			<point x="223" y="495" type="line"/>
			<point x="10" y="494" type="line"/>
		</contour>
	</outline>
</glyph>
<glyph name="a" format="2">
	<unicode hex="0061"/>
	<advance width="500"/>
	<outline>
		<contour>
			<point x="290" y="0" type="line"/>
			<point x="482" y="-0" type="line"/>
			<point x="485" y="413" type="line"/>
			<point x="286" y="411" type="line"/>
			<point x="285" y="361" type="line"/>
			<point x="270" y="381"/>
			<point x="230" y="399"/>
			<point x="186" y="396" type="curve" smooth="yes"/>
			<point x="65" y="388"/>
			<point x="6" y="350"/>
			<point x="6" y="213" type="curve" smooth="yes"/>
			<point x="6" y="96"/>
			<point x="35" y="-11"/>
			<point x="166" y="-11" type="curve" smooth="yes"/>
			<point x="231" y="-11"/>
			<point x="287" y="55"/>
			<point x="289" y="75" type="curve" smooth="yes"/>
		</contour>
	</outline>
</glyph>
<glyph name="b" format="2">
	<unicode hex="0062"/>
	<advance width="670"/>
	<outline>
		<contour>
			<point x="15" y="0" type="line"/>
			<point x="15" y="700" type="line"/>
			<point x="242" y="700" type="line"/>
			<point x="242" y="438" type="line"/>
			<point x="280" y="479"/>
			<point x="352" y="510"/>
			<point x="431" y="510" type="curve" smooth="yes"/>
			<point x="541" y="510"/>
			<point x="665" y="427"/>
			<point x="665" y="252" type="curve" smooth="yes"/>
			<point x="665" y="77"/>
			<point x="560" y="-10"/>
			<point x="435" y="-10" type="curve" smooth="yes"/>
			<point x="363" y="-10"/>
			<point x="289" y="17"/>
			<point x="242" y="65" type="curve" smooth="yes"/>
			<point x="242" y="0" type="line"/>
		</contour>
	</outline>
</glyph>
<glyph name="c" format="2">
	<unicode hex="0063"/>
	<advance width="500"/>
	<outline>
		<contour>
			<point x="247" y="-10" type="curve" smooth="yes"/>
			<point x="88" y="-10"/>
			<point x="9" y="179"/>
			<point x="10" y="265" type="curve" smooth="yes"/>
			<point x="12" y="401"/>
			<point x="100" y="510"/>
			<point x="252" y="510" type="curve" smooth="yes"/>
			<point x="410" y="510"/>
			<point x="492" y="411"/>
			<point x="493" y="372" type="curve"/>
			<point x="227" y="260" type="line"/>
			<point x="491" y="149" type="line"/>
			<point x="486" y="94"/>
			<point x="401" y="-10"/>
		</contour>
	</outline>
</glyph>
<glyph name="d" format="2">
	<unicode hex="0064"/>
	<advance width="500"/>
	<outline>
		<contour>
			<point x="158" y="-18" type="curve" smooth="yes"/>
			<point x="66" y="-16"/>
			<point x="25" y="168"/>
			<point x="26" y="235" type="curve" smooth="yes"/>
			<point x="29" y="419"/>
			<point x="112" y="499"/>
			<point x="167" y="502" type="curve" smooth="yes"/>
			<point x="301" y="509"/>
			<point x="338" y="447"/>
			<point x="347" y="434" type="curve" smooth="yes"/>
			<point x="358" y="657" type="line"/>
			<point x="497" y="645" type="line"/>
			<point x="492" y="-4" type="line"/>
			<point x="344" y="1" type="line"/>
			<point x="347" y="74" type="line"/>
			<point x="326" y="24"/>
			<point x="252" y="-20"/>
		</contour>
	</outline>
</glyph>
<glyph name="e" format="2">
	<unicode hex="0065"/>
	<outline>
		<contour>
			<point x="247" y="-10" type="curve" smooth="yes"/>
			<point x="88" y="-10"/>
			<point x="9" y="179"/>
			<point x="10" y="265" type="curve" smooth="yes"/>
			<point x="12" y="401"/>
			<point x="100" y="510"/>
			<point x="252" y="510" type="curve" smooth="yes"/>
			<point x="410" y="510"/>
			<point x="496" y="406"/>
			<point x="495" y="262" type="curve"/>
			<point x="248" y="269" type="line"/>
			<point x="249" y="175" type="line"/>
			<point x="273" y="177" type="line"/>
			<point x="272" y="247" type="line"/>
			<point x="498" y="239" type="line"/>
			<point x="498" y="83"/>
			<point x="390" y="-10"/>
		</contour>
	</outline>
</glyph>
<glyph name="f" format="2">
	<unicode hex="0066"/>
	<advance width="500"/>
	<outline>
		<contour>
			<point x="17" y="0" type="line"/>
			<point x="21" y="389" type="line"/>
			<point x="1" y="388" type="line"/>
			<point x="0" y="499" type="line"/>
			<point x="30" y="500" type="line"/>
			<point x="29" y="547" type="line" smooth="yes"/>
			<point x="29" y="636"/>
			<point x="72" y="708"/>
			<point x="240" y="710" type="curve" smooth="yes"/>
			<point x="331" y="711"/>
			<point x="391" y="629"/>
			<point x="392" y="527" type="curve" smooth="yes"/>
			<point x="391" y="500" type="line"/>
			<point x="234" y="501" type="line"/>
			<point x="231" y="582" type="line"/>
			<point x="219" y="579" type="line"/>
			<point x="220" y="478" type="line"/>
			<point x="333" y="482" type="line"/>
			<point x="327" y="392" type="line"/>
			<point x="225" y="394" type="line"/>
			<point x="227" y="0" type="line"/>
		</contour>
	</outline>
</glyph>
<glyph name="g" format="2">
	<unicode hex="0067"/>
	<outline>
		<contour>
			<point x="158" y="-18" type="curve" smooth="yes"/>
			<point x="66" y="-16"/>
			<point x="25" y="168"/>
			<point x="26" y="235" type="curve" smooth="yes"/>
			<point x="29" y="419"/>
			<point x="112" y="499"/>
			<point x="167" y="502" type="curve" smooth="yes"/>
			<point x="301" y="509"/>
			<point x="338" y="447"/>
			<point x="347" y="434" type="curve" smooth="yes"/>
			<point x="358" y="507" type="line"/>
			<point x="497" y="495" type="line"/>
			<point x="492" y="-204" type="line"/>
			<point x="344" y="-199" type="line"/>
			<point x="345" y="-149" type="line"/>
			<point x="345" y="-98" type="line"/>
			<point x="346" y="-52" type="line"/>
			<point x="346" y="-29" type="line"/>
			<point x="347" y="74" type="line"/>
			<point x="326" y="24"/>
			<point x="252" y="-20"/>
		</contour>
	</outline>
</glyph>
<glyph name="h" format="2">
	<unicode hex="0068"/>
	<advance width="500"/>
	<outline>
		<contour>
			<point x="22" y="-3" type="line"/>
			<point x="20" y="698" type="line"/>
			<point x="212" y="696" type="line"/>
			<point x="227" y="443" type="line"/>
			<point x="276" y="465"/>
			<point x="310" y="509"/>
			<point x="375" y="510" type="curve" smooth="yes"/>
			<point x="440" y="511"/>
			<point x="491" y="405"/>
			<point x="494" y="384" type="curve" smooth="yes"/>
			<point x="482" y="-5" type="line"/>
			<point x="351" y="-6" type="line"/>
			<point x="330" y="221" type="line"/>
			<point x="314" y="221" type="line"/>
			<point x="328" y="-5" type="line"/>
		</contour>
	</outline>
</glyph>
<glyph name="i" format="2">
	<unicode hex="0069"/>
	<advance width="300"/>
	<outline>
		<contour>
			<point x="14" y="2" type="line"/>
			<point x="28" y="499" type="line"/>
			<point x="282" y="495" type="line"/>
			<point x="242" y="0" type="line"/>
		</contour>
		<contour>
			<point x="32" y="526" type="line"/>
			<point x="29" y="588" type="line"/>
			<point x="282" y="573" type="line"/>
			<point x="282" y="522" type="line"/>
		</contour>
	</outline>
</glyph>
<glyph name="sterling" format="2">
	<unicode hex="00A3"/>
	<advance width="505"/>
	<outline>
		<contour>
			<point x="15" y="-1" type="line"/>
			<point x="490" y="-1" type="line"/>
			<point x="490" y="350" type="line"/>
			<point x="190" y="350" type="line"/>
			<point x="190" y="375" type="line"/>
			<point x="390" y="375" type="line"/>
			<point x="390" y="475" type="line"/>
			<point x="190" y="475" type="line"/>
			<point x="190" y="500" type="line"/>
			<point x="390" y="500" type="line"/>
			<point x="390" y="610"/>
			<point x="345" y="710"/>
			<point x="210" y="710" type="curve" smooth="yes"/>
			<point x="73" y="710"/>
			<point x="15" y="619"/>
			<point x="15" y="500" type="curve" smooth="yes"/>
		</contour>
	</outline>
</glyph>
<glyph name="endash" format="2">
	<unicode hex="2013"/>
	<advance width="570"/>
	<outline>
		<contour>
			<point x="15" y="375" type="line"/>
			<point x="555" y="375" type="line"/>
			<point x="555" y="475" type="line"/>
			<point x="15" y="475" type="line"/>
		</contour>
	</outline>
</glyph>
<glyph name="emdash" format="2">
	<unicode hex="2014"/>
	<advance width="780"/>
	<outline>
		<contour>
			<point x="15" y="375" type="line"/>
			<point x="765" y="375" type="line"/>
			<point x="765" y="475" type="line"/>
			<point x="15" y="475" type="line"/>
		</contour>
	</outline>
</glyph>
<glyph name="B" format="2">
  <advance width="610"/>
  <outline>
    <contour>
      <point x="10" y="700" type="line"/>
      <point x="330" y="700" type="line" smooth="yes"/>
      <point x="461" y="700"/>
      <point x="550" y="641"/>
      <point x="550" y="534" type="curve" smooth="yes"/>
      <point x="550" y="460"/>
      <point x="525" y="424"/>
      <point x="479" y="397" type="curve"/>
      <point x="479" y="385" type="line"/>
      <point x="564" y="351"/>
      <point x="600" y="295"/>
      <point x="600" y="200" type="curve" smooth="yes"/>
      <point x="600" y="72"/>
      <point x="499" y="0"/>
      <point x="336" y="0" type="curve" smooth="yes"/>
      <point x="10" y="0" type="line"/>
      <point x="10" y="180" type="line"/>
      <point x="251" y="180" type="line"/>
      <point x="251" y="210" type="line"/>
      <point x="10" y="210" type="line"/>
      <point x="10" y="510" type="line"/>
      <point x="221" y="510" type="line"/>
      <point x="221" y="540" type="line"/>
      <point x="11" y="540" type="line"/>
    </contour>
  </outline>
</glyph>
<glyph name="M" format="2">
  <advance width="800"/>
  <outline>
    <contour>
      <point x="12" y="685" type="line"/>
      <point x="389" y="589" type="line"/>
      <point x="781" y="689" type="line"/>
      <point x="781" y="18" type="line"/>
      <point x="508" y="20" type="line"/>
      <point x="506" y="277" type="line"/>
      <point x="482" y="278" type="line"/>
      <point x="480" y="20" type="line"/>
      <point x="310" y="18" type="line"/>
      <point x="311" y="270" type="line"/>
      <point x="277" y="267" type="line"/>
      <point x="275" y="19" type="line"/>
      <point x="10" y="12" type="line"/>
    </contour>
  </outline>
</glyph>
<glyph name="O" format="2">
  <advance width="700"/>
  <outline>
    <contour>
      <point x="690" y="339" type="curve"/>
      <point x="686" y="567"/>
      <point x="552" y="716"/>
      <point x="351" y="716" type="curve" smooth="yes"/>
      <point x="149" y="716"/>
      <point x="17" y="554"/>
      <point x="17" y="353" type="curve" smooth="yes"/>
      <point x="17" y="151"/>
      <point x="160" y="-14"/>
      <point x="368" y="-17" type="curve" smooth="yes"/>
      <point x="570" y="-20"/>
      <point x="690" y="138"/>
    </contour>
  </outline>
</glyph>
<glyph name="Q" format="2">
  <advance width="800"/>
  <outline>
    <contour>
      <point x="780" y="339" type="curve" smooth="yes"/>
      <point x="780" y="567"/>
      <point x="617" y="710"/>
      <point x="400" y="710" type="curve" smooth="yes"/>
      <point x="194" y="710"/>
      <point x="17" y="554"/>
      <point x="17" y="353" type="curve" smooth="yes"/>
      <point x="17" y="151"/>
      <point x="134" y="3"/>
      <point x="342" y="0" type="curve" smooth="yes"/>
      <point x="790" y="0" type="line"/>
      <point x="707" y="131" type="line" smooth="yes"/>
      <point x="751" y="183"/>
      <point x="780" y="253"/>
    </contour>
  </outline>
</glyph>
<glyph name="R" format="2">
  <outline>
    <contour>
      <point x="13" y="17" type="line"/>
      <point x="14" y="465" type="line"/>
      <point x="145" y="464" type="line"/>
      <point x="145" y="494" type="line"/>
      <point x="14" y="495" type="line"/>
      <point x="14" y="684" type="line"/>
      <point x="265" y="684" type="line" smooth="yes"/>
      <point x="385" y="683"/>
      <point x="483" y="603"/>
      <point x="484" y="496" type="curve" smooth="yes"/>
      <point x="485" y="389"/>
      <point x="460" y="332"/>
      <point x="376" y="293" type="curve" smooth="yes"/>
      <point x="490" y="6" type="line"/>
      <point x="223" y="12" type="line"/>
      <point x="225" y="266" type="line"/>
      <point x="198" y="265" type="line"/>
      <point x="197" y="13" type="line"/>
    </contour>
  </outline>
</glyph>
<glyph name="X" format="2">
  <advance width="500"/>
  <outline>
    <contour>
      <point x="8" y="691" type="line"/>
      <point x="228" y="685" type="line"/>
      <point x="241" y="455" type="line"/>
      <point x="259" y="459" type="line"/>
      <point x="253" y="684" type="line"/>
      <point x="489" y="685" type="line"/>
      <point x="398" y="361" type="line"/>
      <point x="495" y="9" type="line"/>
      <point x="262" y="11" type="line"/>
      <point x="261" y="264" type="line"/>
      <point x="232" y="262" type="line"/>
      <point x="243" y="15" type="line"/>
      <point x="10" y="6" type="line"/>
      <point x="114" y="353" type="line"/>
    </contour>
  </outline>
</glyph>
<glyph name="Y" format="2">
  <advance width="500"/>
  <outline>
    <contour>
      <point x="11" y="690" type="line"/>
      <point x="238" y="688" type="line"/>
      <point x="240" y="557" type="line"/>
      <point x="262" y="557" type="line"/>
      <point x="264" y="685" type="line"/>
      <point x="491" y="691" type="line"/>
      <point x="329" y="341" type="line"/>
      <point x="333" y="11" type="line"/>
      <point x="173" y="10" type="line"/>
      <point x="167" y="339" type="line"/>
    </contour>
  </outline>
</glyph>
